<mxfile host="app.diagrams.net" modified="2023-11-13T15:39:04.505Z" agent="Mozilla/5.0 (Windows NT 10.0; Win64; x64) AppleWebKit/537.36 (KHTML, like Gecko) Chrome/119.0.0.0 Safari/537.36" etag="ejYbLoBieyVsb7gbP2Fy" version="22.1.0" type="device">
  <diagram name="Trang-1" id="TCyuRs5gd3bqZfmzaTea">
    <mxGraphModel dx="794" dy="454" grid="1" gridSize="10" guides="1" tooltips="1" connect="1" arrows="1" fold="1" page="1" pageScale="1" pageWidth="827" pageHeight="1169" math="0" shadow="0">
      <root>
        <mxCell id="0" />
        <mxCell id="1" parent="0" />
        <mxCell id="tTGZ0h0hGUic6l1tybzE-3" value="" style="edgeStyle=orthogonalEdgeStyle;rounded=0;orthogonalLoop=1;jettySize=auto;html=1;" edge="1" parent="1" source="tTGZ0h0hGUic6l1tybzE-1" target="tTGZ0h0hGUic6l1tybzE-2">
          <mxGeometry relative="1" as="geometry" />
        </mxCell>
        <mxCell id="tTGZ0h0hGUic6l1tybzE-1" value="start" style="ellipse;whiteSpace=wrap;html=1;" vertex="1" parent="1">
          <mxGeometry x="90" y="90" width="120" height="80" as="geometry" />
        </mxCell>
        <mxCell id="tTGZ0h0hGUic6l1tybzE-5" value="" style="edgeStyle=orthogonalEdgeStyle;rounded=0;orthogonalLoop=1;jettySize=auto;html=1;" edge="1" parent="1" source="tTGZ0h0hGUic6l1tybzE-2">
          <mxGeometry relative="1" as="geometry">
            <mxPoint x="510" y="130" as="targetPoint" />
          </mxGeometry>
        </mxCell>
        <mxCell id="tTGZ0h0hGUic6l1tybzE-2" value="n" style="shape=parallelogram;perimeter=parallelogramPerimeter;whiteSpace=wrap;html=1;fixedSize=1;" vertex="1" parent="1">
          <mxGeometry x="290" y="100" width="120" height="60" as="geometry" />
        </mxCell>
        <mxCell id="tTGZ0h0hGUic6l1tybzE-8" value="" style="edgeStyle=orthogonalEdgeStyle;rounded=0;orthogonalLoop=1;jettySize=auto;html=1;" edge="1" parent="1" source="tTGZ0h0hGUic6l1tybzE-6" target="tTGZ0h0hGUic6l1tybzE-7">
          <mxGeometry relative="1" as="geometry" />
        </mxCell>
        <mxCell id="tTGZ0h0hGUic6l1tybzE-6" value="i=1;" style="rounded=0;whiteSpace=wrap;html=1;" vertex="1" parent="1">
          <mxGeometry x="510" y="100" width="120" height="60" as="geometry" />
        </mxCell>
        <mxCell id="tTGZ0h0hGUic6l1tybzE-10" value="" style="edgeStyle=orthogonalEdgeStyle;rounded=0;orthogonalLoop=1;jettySize=auto;html=1;" edge="1" parent="1" source="tTGZ0h0hGUic6l1tybzE-7" target="tTGZ0h0hGUic6l1tybzE-9">
          <mxGeometry relative="1" as="geometry" />
        </mxCell>
        <mxCell id="tTGZ0h0hGUic6l1tybzE-11" value="True" style="edgeLabel;html=1;align=center;verticalAlign=middle;resizable=0;points=[];" vertex="1" connectable="0" parent="tTGZ0h0hGUic6l1tybzE-10">
          <mxGeometry x="-0.2074" y="1" relative="1" as="geometry">
            <mxPoint as="offset" />
          </mxGeometry>
        </mxCell>
        <mxCell id="tTGZ0h0hGUic6l1tybzE-16" value="" style="edgeStyle=orthogonalEdgeStyle;rounded=0;orthogonalLoop=1;jettySize=auto;html=1;" edge="1" parent="1" source="tTGZ0h0hGUic6l1tybzE-7">
          <mxGeometry relative="1" as="geometry">
            <mxPoint x="690" y="270" as="targetPoint" />
          </mxGeometry>
        </mxCell>
        <mxCell id="tTGZ0h0hGUic6l1tybzE-18" value="false" style="edgeLabel;html=1;align=center;verticalAlign=middle;resizable=0;points=[];" vertex="1" connectable="0" parent="tTGZ0h0hGUic6l1tybzE-16">
          <mxGeometry x="-0.2878" y="-1" relative="1" as="geometry">
            <mxPoint as="offset" />
          </mxGeometry>
        </mxCell>
        <mxCell id="tTGZ0h0hGUic6l1tybzE-7" value="i&amp;lt;=9" style="rhombus;whiteSpace=wrap;html=1;rounded=0;" vertex="1" parent="1">
          <mxGeometry x="530" y="230" width="80" height="80" as="geometry" />
        </mxCell>
        <mxCell id="tTGZ0h0hGUic6l1tybzE-13" value="" style="edgeStyle=orthogonalEdgeStyle;rounded=0;orthogonalLoop=1;jettySize=auto;html=1;" edge="1" parent="1" source="tTGZ0h0hGUic6l1tybzE-9" target="tTGZ0h0hGUic6l1tybzE-12">
          <mxGeometry relative="1" as="geometry" />
        </mxCell>
        <mxCell id="tTGZ0h0hGUic6l1tybzE-9" value="i*n" style="shape=parallelogram;perimeter=parallelogramPerimeter;whiteSpace=wrap;html=1;fixedSize=1;rounded=0;" vertex="1" parent="1">
          <mxGeometry x="510" y="400" width="120" height="60" as="geometry" />
        </mxCell>
        <mxCell id="tTGZ0h0hGUic6l1tybzE-12" value="i=i+1" style="whiteSpace=wrap;html=1;rounded=0;" vertex="1" parent="1">
          <mxGeometry x="310" y="400" width="120" height="60" as="geometry" />
        </mxCell>
        <mxCell id="tTGZ0h0hGUic6l1tybzE-14" value="" style="endArrow=classic;html=1;rounded=0;exitX=0.5;exitY=0;exitDx=0;exitDy=0;entryX=0;entryY=0.5;entryDx=0;entryDy=0;" edge="1" parent="1" source="tTGZ0h0hGUic6l1tybzE-12" target="tTGZ0h0hGUic6l1tybzE-7">
          <mxGeometry width="50" height="50" relative="1" as="geometry">
            <mxPoint x="380" y="260" as="sourcePoint" />
            <mxPoint x="430" y="210" as="targetPoint" />
            <Array as="points">
              <mxPoint x="370" y="270" />
            </Array>
          </mxGeometry>
        </mxCell>
        <mxCell id="tTGZ0h0hGUic6l1tybzE-17" value="end" style="ellipse;whiteSpace=wrap;html=1;" vertex="1" parent="1">
          <mxGeometry x="690" y="230" width="120" height="80" as="geometry" />
        </mxCell>
      </root>
    </mxGraphModel>
  </diagram>
</mxfile>
